<?xml version="1.0" standalone="no"?>
<!DOCTYPE svg PUBLIC "-//W3C//DTD SVG 20010904//EN"
 "http://www.w3.org/TR/2001/REC-SVG-20010904/DTD/svg10.dtd">
<svg version="1.0" xmlns="http://www.w3.org/2000/svg"
 width="512.000000pt" height="512.000000pt" viewBox="0 0 512.000000 512.000000"
 preserveAspectRatio="xMidYMid meet">
<metadata>
Created by potrace 1.16, written by Peter Selinger 2001-2019
</metadata>
<g transform="translate(0.000000,512.000000) scale(0.100000,-0.100000)"
fill="#000000" stroke="none">
<path d="M1850 5105 c-475 -63 -911 -283 -1247 -628 -305 -313 -486 -665 -573
-1112 -31 -159 -38 -462 -16 -647 93 -757 591 -1412 1296 -1703 570 -235 1205
-217 1753 50 62 29 137 69 167 88 l55 35 550 -548 c353 -351 568 -557 599
-575 159 -92 352 -87 496 13 73 51 142 143 170 227 19 56 22 83 18 163 -3 84
-8 107 -38 172 -33 73 -49 90 -589 633 l-556 558 28 47 c51 86 155 306 186
396 38 106 73 246 97 381 26 142 26 507 1 656 -47 279 -145 548 -281 774 l-36
60 81 81 81 82 46 -20 c70 -31 148 -34 231 -9 91 28 178 104 212 186 l23 55
258 0 258 0 0 90 0 90 -259 0 -258 0 -32 65 c-56 114 -152 175 -286 183 -132
7 -232 -43 -307 -153 -61 -92 -73 -223 -29 -320 l19 -40 -70 -72 -71 -71 -50
61 c-74 91 -230 243 -327 318 -273 213 -566 344 -930 416 -159 31 -502 41
-670 18z m490 -170 c427 -50 795 -216 1106 -497 828 -749 859 -2042 69 -2833
-465 -464 -1126 -664 -1770 -534 -642 130 -1183 577 -1426 1180 -116 288 -165
603 -139 889 45 501 251 932 608 1272 409 390 998 589 1552 523z m2017 -191
c45 -34 66 -70 71 -123 10 -103 -82 -192 -184 -176 -65 9 -130 74 -139 139
-10 62 21 126 78 161 35 21 51 25 95 22 32 -2 63 -12 79 -23z m-494 -3486
l-193 -193 -114 114 -114 113 67 58 c84 73 311 308 311 323 0 7 53 -41 117
-106 l118 -117 -192 -192z m1058 -702 c40 -90 23 -213 -38 -281 -88 -99 -236
-126 -343 -63 -19 12 -194 179 -388 372 l-352 351 192 192 193 193 357 -357
c285 -286 361 -368 379 -407z"/>
<path d="M1960 4774 c-14 -2 -59 -9 -100 -15 -701 -100 -1290 -635 -1465
-1329 -40 -160 -49 -246 -49 -445 0 -199 13 -315 54 -465 175 -633 667 -1118
1295 -1273 160 -40 259 -51 440 -51 285 0 514 50 771 168 407 189 757 570 910
993 80 221 108 387 108 633 -1 298 -58 549 -180 791 -273 543 -780 905 -1377
984 -105 13 -340 19 -407 9z m482 -203 c378 -77 709 -279 956 -584 l55 -68
-103 -104 -102 -103 -43 19 c-174 77 -386 -16 -456 -199 -26 -71 -23 -195 7
-256 l19 -38 -277 -273 -277 -273 -53 20 c-84 32 -181 26 -278 -16 -10 -4 -72
51 -204 183 l-188 189 21 56 c45 122 18 258 -71 352 -131 139 -345 147 -487
19 -22 -20 -55 -66 -72 -101 l-32 -64 -149 0 -150 0 7 33 c28 135 125 358 221
505 158 243 367 428 631 560 162 82 338 135 548 166 75 11 383 -4 477 -23z
m1138 -872 c227 -449 223 -983 -10 -1445 -226 -446 -639 -755 -1142 -856 -91
-18 -146 -22 -283 -22 -287 0 -513 54 -755 180 -368 191 -650 521 -783 914
-70 207 -106 490 -81 643 l7 37 168 0 167 0 7 -29 c14 -63 90 -147 175 -192
39 -21 59 -24 145 -24 78 0 107 4 134 18 l34 19 192 -192 193 -193 -21 -46
c-25 -56 -27 -174 -3 -239 34 -93 115 -175 208 -208 24 -9 76 -16 120 -16 65
-1 86 4 140 29 172 82 246 274 174 448 l-17 39 275 275 275 275 38 -18 c24
-12 68 -21 118 -23 92 -6 166 16 232 68 118 94 164 273 104 404 l-19 40 86 88
c48 48 88 87 89 87 2 0 17 -27 33 -61z m-469 -126 c19 -4 50 -23 75 -49 56
-55 67 -112 34 -179 -73 -150 -292 -112 -308 54 -6 67 29 129 90 160 47 23 59
24 109 14z m-1869 -173 c46 -13 105 -77 114 -125 25 -133 -110 -237 -232 -179
-42 20 -70 55 -85 104 -23 77 16 155 96 191 47 22 57 22 107 9z m888 -871 c54
-31 83 -87 78 -153 -7 -90 -70 -148 -158 -148 -93 0 -162 69 -162 163 0 124
132 199 242 138z"/>
</g>
</svg>
