<svg xmlns="http://www.w3.org/2000/svg" version="1.0" width="512.000000pt" height="512.000000pt" viewBox="0 0 512.000000 512.000000" preserveAspectRatio="xMidYMid meet">
<metadata fill="#263d89">
Created by potrace 1.16, written by Peter Selinger 2001-2019
</metadata>
<g transform="translate(0.000000,512.000000) scale(0.100000,-0.100000)" fill="#263d89" stroke="none">
<path d="M3760 4410 c-19 -10 -301 -285 -626 -612 -435 -437 -603 -612 -638 -665 -64 -99 -113 -208 -143 -322 -22 -83 -26 -117 -26 -251 0 -134 4 -168 26 -251 30 -115 78 -222 143 -321 35 -54 204 -230 639 -666 329 -332 606 -602 627 -613 75 -39 175 -13 218 56 19 30 22 47 18 101 l-4 64 -595 598 c-584 585 -644 651 -689 757 -73 171 -73 379 0 550 45 106 105 172 681 750 323 325 592 600 598 612 19 37 13 122 -10 160 -42 67 -146 93 -219 53z" fill="#263d89"/>
</g>
</svg>