<?xml version="1.0" standalone="no"?>
<!DOCTYPE svg PUBLIC "-//W3C//DTD SVG 20010904//EN"
 "http://www.w3.org/TR/2001/REC-SVG-20010904/DTD/svg10.dtd">
<svg version="1.0" xmlns="http://www.w3.org/2000/svg"
 width="512.000000pt" height="512.000000pt" viewBox="0 0 512.000000 512.000000"
 preserveAspectRatio="xMidYMid meet">
<metadata>
Created by potrace 1.16, written by Peter Selinger 2001-2019
</metadata>
<g transform="translate(0.000000,512.000000) scale(0.100000,-0.100000)"
fill="#000000" stroke="none">
<path d="M1883 5098 c-18 -13 -39 -37 -48 -55 -27 -56 -19 -103 41 -238 30
-69 52 -129 49 -134 -3 -5 -19 -13 -36 -16 -143 -32 -309 -167 -389 -316 -68
-128 -73 -160 -77 -515 l-5 -322 -106 -4 c-84 -3 -116 -9 -147 -25 -94 -50
-134 -126 -135 -257 l0 -88 -27 6 c-48 12 -146 62 -199 102 -104 80 -177 180
-222 307 -23 64 -26 92 -31 259 -6 168 -8 190 -27 215 -75 101 -207 97 -262
-8 -23 -43 -23 -50 -19 -229 3 -121 11 -207 21 -248 90 -353 347 -614 691
-702 l70 -18 3 -145 3 -146 -463 -3 c-423 -3 -466 -5 -496 -21 -101 -55 -96
-217 8 -269 32 -16 77 -18 493 -18 l457 0 0 -148 0 -148 -68 -16 c-310 -73
-580 -321 -676 -623 -47 -150 -65 -483 -28 -555 52 -104 215 -109 269 -8 14
26 19 70 24 218 8 223 24 280 111 411 70 106 218 217 331 247 l37 10 0 -74 c0
-684 464 -1292 1123 -1473 252 -69 562 -69 814 0 451 124 818 447 1003 882 73
173 120 402 120 591 l0 74 38 -10 c112 -30 260 -141 330 -247 87 -131 103
-188 111 -411 5 -148 10 -192 24 -218 54 -101 217 -96 269 8 37 72 19 405 -28
555 -96 302 -366 550 -676 623 l-68 16 0 148 0 148 458 0 c415 0 460 2 492 18
104 52 109 214 8 269 -30 16 -73 18 -496 21 l-463 3 3 146 3 145 70 18 c292
74 540 290 645 560 52 137 62 191 67 390 4 179 4 186 -19 229 -55 105 -187
109 -262 8 -19 -25 -21 -47 -27 -215 -5 -167 -8 -195 -31 -259 -45 -127 -118
-227 -222 -307 -53 -40 -151 -90 -198 -102 l-28 -6 0 88 c-1 131 -41 207 -135
257 -31 16 -63 22 -147 25 l-106 4 -5 322 c-4 355 -9 387 -77 515 -80 149
-246 284 -389 316 -17 3 -33 11 -36 16 -3 5 19 65 49 134 60 135 68 182 41
238 -24 51 -72 77 -138 77 -88 0 -110 -25 -210 -250 l-83 -185 -294 0 -294 0
-83 185 c-101 225 -122 250 -210 250 -44 0 -66 -5 -90 -22z m1288 -746 c66
-26 131 -79 166 -135 49 -77 53 -110 53 -424 l0 -293 -830 0 -830 0 0 293 c0
313 4 347 53 424 48 77 133 133 230 153 23 4 281 8 572 7 525 -2 531 -2 586
-25z m-761 -1891 l0 -738 23 -34 c12 -19 38 -42 57 -51 70 -35 154 -13 197 51
l23 34 0 738 0 739 541 0 540 0 -4 -907 c-4 -890 -4 -910 -25 -1005 -58 -258
-172 -463 -355 -641 -167 -162 -380 -274 -617 -323 -116 -25 -344 -25 -460 0
-237 49 -450 161 -617 323 -183 178 -297 383 -355 641 -21 95 -21 115 -25
1005 l-4 907 540 0 541 0 0 -739z"/>
</g>
</svg>
