<svg width="44" height="44" viewBox="0 0 44 44" fill="none" xmlns="http://www.w3.org/2000/svg">
<path fill-rule="evenodd" clip-rule="evenodd" d="M21.9999 5.0415C20.206 5.0415 18.6763 6.18739 18.1093 7.79138C17.8562 8.50737 17.0706 8.88265 16.3547 8.62958C15.6387 8.3765 15.2634 7.59094 15.5165 6.87497C16.4596 4.20659 19.0043 2.2915 21.9999 2.2915C24.9954 2.2915 27.5403 4.20659 28.4833 6.87497C28.7365 7.59094 28.3612 8.3765 27.6451 8.62958C26.9292 8.88265 26.1436 8.50737 25.8906 7.79138C25.3236 6.18739 23.7938 5.0415 21.9999 5.0415Z" fill="#1C274D"/>
<path d="M25.667 22.9165H18.3337C17.8274 22.9165 17.417 23.327 17.417 23.8332V27.7959C17.417 28.1707 17.6452 28.5078 17.9932 28.647L19.2767 29.1605C21.0252 29.8597 22.9755 29.8597 24.7239 29.1605L26.0074 28.647C26.3554 28.5078 26.5837 28.1707 26.5837 27.7959V23.8332C26.5837 23.327 26.1732 22.9165 25.667 22.9165Z" fill="#1C274D"/>
<path d="M14.6864 28.1769L5.51074 25.4243C5.56591 31.1342 5.89946 36.3928 7.91619 38.1854C10.3325 40.3332 14.2216 40.3332 21.9998 40.3332C29.7779 40.3332 33.6671 40.3332 36.0835 38.1854C38.1001 36.3928 38.4336 31.1342 38.4888 25.4243L29.3135 28.1769C29.1738 29.5202 28.3015 30.6915 27.0285 31.2006L25.7448 31.7141C23.3409 32.6757 20.6591 32.6757 18.2551 31.7141L16.9716 31.2006C15.6985 30.6915 14.8262 29.5202 14.6864 28.1769Z" fill="#1C274D"/>
<path d="M13.95 9.1665H30.0507C34.5425 9.1665 36.7885 9.1665 38.3049 10.4003C38.5964 10.6374 38.8628 10.9038 39.0998 11.1953C40.3337 12.7116 40.3337 14.9576 40.3337 19.4495C40.3337 20.5895 40.3337 21.1593 40.0572 21.6038C40.0035 21.6904 39.9424 21.7723 39.875 21.8488C39.5286 22.2413 38.9827 22.4052 37.8909 22.7326L29.3337 25.2998V23.8332C29.3337 21.8081 27.6921 20.1665 25.667 20.1665H18.3337C16.3086 20.1665 14.667 21.8081 14.667 23.8332V25.2998L6.10973 22.7326C5.01798 22.4052 4.4721 22.2413 4.12571 21.8488C4.05824 21.7723 3.99727 21.6904 3.94342 21.6038C3.66699 21.1593 3.66699 20.5895 3.66699 19.4495C3.66699 14.9576 3.66699 12.7116 4.90079 11.1953C5.13793 10.9038 5.40431 10.6374 5.69574 10.4003C7.21211 9.1665 9.45807 9.1665 13.95 9.1665Z" fill="#1C274D"/>
</svg>
