<?xml version="1.0" standalone="no"?>
<!DOCTYPE svg PUBLIC "-//W3C//DTD SVG 20010904//EN"
 "http://www.w3.org/TR/2001/REC-SVG-20010904/DTD/svg10.dtd">
<svg version="1.0" xmlns="http://www.w3.org/2000/svg"
 width="512.000000pt" height="512.000000pt" viewBox="0 0 512.000000 512.000000"
 preserveAspectRatio="xMidYMid meet">
<metadata>
Created by potrace 1.16, written by Peter Selinger 2001-2019
</metadata>
<g transform="translate(0.000000,512.000000) scale(0.100000,-0.100000)"
fill="#000000" stroke="none">
<path d="M2255 5100 c-415 -69 -776 -253 -1072 -547 -350 -348 -552 -792 -589
-1293 -6 -88 -9 -98 -40 -134 -37 -43 -72 -112 -81 -159 -9 -49 -20 -64 -50
-72 -84 -21 -210 -130 -256 -221 -44 -88 -49 -136 -45 -475 l3 -315 38 -78
c51 -103 122 -173 222 -217 60 -27 77 -39 81 -59 32 -146 118 -254 235 -295
61 -22 309 -21 375 2 74 25 173 128 205 213 l24 65 0 720 0 720 -23 58 c-13
32 -39 78 -58 103 -33 43 -34 47 -28 112 34 372 171 663 430 912 204 196 469
325 749 365 578 83 1145 -225 1418 -770 63 -126 115 -327 131 -507 6 -65 5
-69 -28 -112 -19 -25 -45 -71 -58 -103 l-23 -58 0 -720 0 -720 23 -62 c42
-110 135 -199 235 -224 l49 -12 -4 -216 c-4 -197 -6 -221 -27 -274 -44 -112
-156 -219 -266 -254 -37 -12 -105 -17 -262 -20 l-212 -5 -24 49 c-31 59 -102
127 -165 156 -43 20 -63 22 -252 22 l-205 0 -67 -33 c-118 -58 -181 -154 -186
-287 -5 -111 21 -180 97 -256 91 -91 130 -101 376 -97 187 3 203 5 248 27 61
30 128 95 153 147 l19 41 230 6 c259 6 303 14 426 78 147 77 263 213 316 372
25 78 27 94 31 313 l4 230 46 13 c125 32 220 145 256 301 5 19 24 33 85 62
101 48 168 114 219 217 l37 75 3 315 c4 339 -1 387 -45 474 -47 95 -157 189
-250 217 -39 12 -43 16 -52 61 -14 65 -45 128 -85 175 -31 36 -34 46 -40 134
-49 662 -397 1238 -956 1582 -213 130 -450 216 -715 259 -160 25 -443 25 -600
-1z m535 -221 c364 -45 709 -218 985 -494 157 -156 242 -273 335 -460 96 -195
155 -385 175 -570 3 -33 8 -70 11 -82 4 -22 2 -23 -70 -23 l-74 0 -6 68 c-43
430 -287 855 -641 1117 -313 230 -695 340 -1071 306 -210 -19 -364 -59 -542
-142 -502 -233 -864 -738 -918 -1281 l-6 -68 -74 0 c-72 0 -74 1 -70 23 3 12
8 49 11 82 20 185 79 375 175 570 93 187 178 304 335 460 391 390 893 562
1445 494z m-1767 -1883 c58 -54 57 -38 57 -770 l0 -671 -23 -40 c-32 -57 -74
-75 -172 -75 -98 0 -140 18 -172 75 l-23 40 0 673 c0 731 -1 714 56 767 25 24
33 25 139 25 104 0 114 -2 138 -24z m3350 0 c58 -54 57 -38 57 -770 l0 -671
-23 -40 c-32 -57 -74 -75 -172 -75 -98 0 -140 18 -172 75 l-23 40 0 671 c0
732 -1 716 57 770 24 22 34 24 138 24 104 0 114 -2 138 -24z m-3915 -972 l-3
-217 -31 26 c-18 15 -42 48 -55 74 -24 47 -24 54 -24 328 0 268 1 282 22 321
12 22 36 55 55 73 l33 32 3 -210 c1 -115 1 -307 0 -427z m4260 586 c7 -8 22
-33 35 -55 21 -39 22 -49 22 -315 0 -293 -2 -310 -52 -377 -13 -18 -33 -37
-43 -43 -20 -11 -20 -5 -20 416 l0 427 22 -19 c13 -10 28 -26 36 -34z m-1637
-2177 c16 -9 36 -33 45 -52 15 -31 15 -40 3 -75 -24 -67 -53 -80 -185 -85
-154 -4 -196 3 -234 40 -24 25 -30 39 -30 76 0 38 5 50 34 79 l34 34 152 0
c125 0 157 -3 181 -17z"/>
</g>
</svg>
