<svg xmlns="http://www.w3.org/2000/svg" version="1.0" width="512.000000pt" height="512.000000pt" viewBox="0 0 512.000000 512.000000" preserveAspectRatio="xMidYMid meet">
<metadata fill="#263d89">
Created by potrace 1.16, written by Peter Selinger 2001-2019
</metadata>
<g transform="translate(0.000000,512.000000) scale(0.100000,-0.100000)" fill="#263d89" stroke="none">
<path d="M1800 4459 c-526 -37 -963 -163 -1250 -359 -283 -194 -443 -440 -522 -805 -22 -99 -22 -109 -25 -1372 l-4 -1273 1101 0 1100 0 0 1100 0 1100 -549 0 -549 0 -7 98 c-15 194 25 422 99 570 150 297 430 444 909 477 l97 7 0 234 0 234 -142 -1 c-79 -1 -195 -6 -258 -10z" fill="#263d89"/>
<path d="M4720 4459 c-1043 -78 -1626 -461 -1760 -1154 -36 -187 -40 -347 -40 -1517 l0 -1138 1100 0 1100 0 0 1100 0 1100 -544 0 -543 0 -7 53 c-26 216 20 482 110 645 80 143 188 243 349 323 145 71 302 107 548 125 l87 6 0 234 0 234 -142 -1 c-79 -1 -195 -6 -258 -10z" fill="#263d89"/>
</g>
</svg>