<?xml version="1.0" standalone="no"?>
<!DOCTYPE svg PUBLIC "-//W3C//DTD SVG 20010904//EN"
 "http://www.w3.org/TR/2001/REC-SVG-20010904/DTD/svg10.dtd">
<svg version="1.0" xmlns="http://www.w3.org/2000/svg"
 width="512.000000pt" height="512.000000pt" viewBox="0 0 512.000000 512.000000"
 preserveAspectRatio="xMidYMid meet">
<metadata>
Created by potrace 1.16, written by Peter Selinger 2001-2019
</metadata>
<g transform="translate(0.000000,512.000000) scale(0.100000,-0.100000)"
fill="#000000" stroke="none">
<path d="M4875 5101 c-16 -10 -95 -85 -175 -165 l-145 -146 -105 104 c-74 73
-115 107 -140 114 -41 10 -1733 -72 -1790 -88 -27 -7 -106 -80 -343 -318 -276
-276 -309 -313 -318 -351 -17 -74 18 -153 81 -186 34 -17 107 -20 147 -4 15 5
148 130 295 276 l266 266 772 39 773 40 63 -64 64 -63 -159 -159 -159 -159
-81 26 c-236 78 -493 -9 -630 -213 -63 -96 -86 -175 -86 -305 1 -93 5 -121 27
-182 83 -231 303 -375 548 -360 361 23 594 368 484 718 l-26 82 158 158 159
159 63 -64 64 -63 -40 -773 -39 -772 -260 -262 c-143 -143 -268 -272 -277
-286 -20 -31 -21 -121 -1 -159 21 -42 69 -78 114 -86 86 -14 92 -9 428 327
264 265 312 318 317 348 15 88 93 1747 84 1780 -7 24 -41 67 -114 140 l-104
105 151 150 c83 83 157 162 165 177 8 15 14 51 14 80 0 63 -24 109 -72 138
-44 27 -132 27 -173 1z m-1047 -1157 c186 -77 170 -350 -24 -404 -158 -45
-309 106 -264 264 34 122 172 189 288 140z"/>
<path d="M1022 4460 c-48 -29 -72 -75 -72 -138 0 -29 5 -63 11 -75 6 -12 104
-115 218 -230 l206 -207 -682 -683 c-374 -375 -686 -692 -692 -704 -17 -33
-14 -125 5 -153 24 -36 2191 -2206 2238 -2241 32 -24 49 -29 93 -29 30 0 64 5
76 11 12 6 329 318 704 692 l683 682 292 -292 c161 -161 306 -297 321 -303 48
-17 111 -12 148 13 70 47 97 127 69 204 -12 32 -3409 3436 -3452 3459 -40 21
-126 18 -166 -6z m1578 -1865 l975 -975 -613 -612 -612 -613 -977 977 -978
978 610 610 c335 335 612 610 615 610 3 0 444 -439 980 -975z"/>
<path d="M1659 2660 c-46 -13 -78 -41 -99 -84 -23 -49 -26 -94 -6 -139 8 -18
200 -217 442 -459 378 -376 434 -427 467 -434 85 -15 156 19 188 90 23 50 24
85 4 134 -21 51 -824 857 -880 883 -42 20 -74 22 -116 9z"/>
</g>
</svg>
