<?xml version="1.0" standalone="no"?>
<!DOCTYPE svg PUBLIC "-//W3C//DTD SVG 20010904//EN"
 "http://www.w3.org/TR/2001/REC-SVG-20010904/DTD/svg10.dtd">
<svg version="1.0" xmlns="http://www.w3.org/2000/svg"
 width="512.000000pt" height="512.000000pt" viewBox="0 0 512.000000 512.000000"
 preserveAspectRatio="xMidYMid meet">
<metadata>
Created by potrace 1.16, written by Peter Selinger 2001-2019
</metadata>
<g transform="translate(0.000000,512.000000) scale(0.100000,-0.100000)"
fill="#000000" stroke="none">
<path d="M2732 5105 c-56 -25 -107 -71 -138 -127 l-29 -53 -3 -559 c-3 -624
-3 -626 64 -704 20 -24 59 -55 88 -70 l51 -27 1075 0 c1074 0 1075 0 1120 21
53 25 111 82 137 133 17 33 18 79 21 611 2 518 1 579 -14 619 -23 60 -79 119
-139 147 -45 21 -64 24 -192 24 l-143 0 0 -75 0 -75 98 0 c126 -1 170 -11 205
-50 l27 -30 0 -544 c0 -536 0 -544 -21 -570 -46 -59 13 -56 -1094 -56 -1118 0
-1065 -3 -1105 62 -19 32 -20 49 -20 556 0 580 -1 575 64 610 28 16 101 17
869 20 l837 3 0 74 0 75 -862 0 c-732 -1 -868 -3 -896 -15z"/>
<path d="M1950 4695 l-54 -55 84 -85 84 -84 -385 -3 -384 -3 -47 -27 c-25 -16
-60 -45 -77 -65 -60 -73 -61 -79 -61 -610 l0 -483 -21 0 c-12 0 -70 36 -130
80 -59 44 -111 80 -115 80 -3 0 -116 -63 -250 -141 -199 -115 -244 -145 -244
-163 0 -11 5 -75 11 -141 l12 -120 -64 -109 -64 -108 -120 -52 -120 -52 0
-294 0 -294 123 -55 123 -56 60 -105 61 -105 -12 -138 c-8 -81 -9 -142 -4
-146 11 -11 457 -269 478 -277 10 -4 56 24 126 75 l110 81 126 0 126 0 111
-81 c101 -75 112 -80 135 -69 21 9 474 269 478 274 1 0 -5 63 -13 138 l-15
137 63 110 62 110 126 55 126 54 3 290 2 289 -128 57 -128 57 -63 110 -64 110
16 137 c8 75 14 138 14 138 -11 8 -480 276 -490 280 -7 2 -63 -31 -123 -75
-73 -54 -118 -81 -136 -81 l-28 0 0 470 c0 517 0 514 60 545 24 13 85 15 377
15 l348 0 -78 -78 c-42 -42 -77 -82 -77 -88 0 -12 92 -104 105 -104 5 0 90 80
187 177 l178 178 -177 177 c-98 98 -180 178 -183 178 -3 0 -30 -25 -60 -55z
m-979 -1547 l37 -28 187 0 187 0 88 65 89 65 158 -92 159 -92 -13 -110 -13
-111 89 -155 89 -155 103 -46 104 -47 0 -183 0 -182 -103 -46 -103 -46 -89
-155 -90 -155 13 -111 13 -111 -159 -92 -158 -92 -89 66 -89 65 -184 0 -184 0
-90 -65 -90 -65 -157 91 c-117 68 -156 96 -156 110 0 11 5 62 10 113 l11 93
-89 154 -89 154 -101 45 -102 45 0 185 1 185 101 45 102 45 88 153 89 153 -10
94 c-6 52 -11 103 -11 114 0 14 39 42 157 110 l157 90 50 -36 c28 -20 67 -49
87 -65z"/>
<path d="M1064 2825 c-158 -34 -318 -161 -387 -306 -45 -97 -58 -152 -58 -258
0 -198 88 -372 239 -475 262 -179 629 -120 807 129 140 196 147 460 17 661
-130 201 -378 301 -618 249z m207 -155 c129 -24 244 -111 298 -223 82 -173 49
-360 -86 -488 -29 -27 -83 -64 -120 -82 -63 -29 -76 -32 -169 -32 -96 0 -103
2 -176 38 -143 70 -228 194 -236 344 -8 138 34 248 125 334 100 95 230 134
364 109z"/>
<path d="M3070 4560 c-57 -65 -106 -123 -108 -128 -3 -9 100 -102 115 -102 4
0 25 19 45 42 l37 43 1 -207 0 -208 80 0 80 0 0 340 0 340 -72 0 -73 -1 -105
-119z"/>
<path d="M3830 4340 l0 -80 80 0 80 0 0 80 0 80 -80 0 -80 0 0 -80z"/>
<path d="M4130 4340 l0 -80 80 0 80 0 0 80 0 80 -80 0 -80 0 0 -80z"/>
<path d="M2759 3331 c-77 -24 -151 -93 -179 -169 -19 -50 -20 -78 -20 -602 0
-524 1 -552 20 -602 21 -58 81 -123 140 -154 33 -18 82 -19 1120 -19 l1085 0
48 25 c56 28 102 76 128 134 17 38 19 79 19 617 l0 575 -26 52 c-14 29 -44 67
-66 86 -81 70 -17 66 -1187 65 -581 0 -1068 -4 -1082 -8z m2140 -165 c63 -33
61 -12 61 -606 0 -485 -2 -543 -16 -566 -38 -57 15 -54 -1101 -54 -802 0
-1033 3 -1053 13 -13 7 -35 28 -47 46 l-23 34 0 527 0 527 23 34 c12 18 34 39
47 46 20 10 251 13 1053 13 878 0 1032 -2 1056 -14z"/>
<path d="M3095 2916 c-97 -45 -155 -134 -155 -238 l0 -58 80 0 80 0 0 46 c0
39 5 51 35 81 32 32 40 35 77 30 47 -6 74 -29 87 -73 17 -60 -6 -89 -189 -233
l-170 -134 0 -79 0 -78 275 0 275 0 0 80 0 80 -141 0 -140 0 99 79 c124 98
152 146 152 256 0 58 -5 82 -27 126 -63 123 -213 174 -338 115z"/>
<path d="M3800 2760 l0 -80 425 0 425 0 0 80 0 80 -425 0 -425 0 0 -80z"/>
<path d="M3800 2360 l0 -80 275 0 275 0 0 80 0 80 -275 0 -275 0 0 -80z"/>
<path d="M2775 1551 c-54 -14 -112 -50 -149 -93 -67 -78 -67 -80 -64 -704 l3
-559 29 -53 c17 -30 47 -67 67 -83 66 -52 95 -59 254 -59 l145 0 0 74 0 74
-122 4 c-141 5 -176 17 -202 72 -14 30 -16 94 -16 558 0 507 1 524 20 556 40
65 -13 62 1105 62 1107 0 1048 3 1094 -56 21 -26 21 -34 21 -570 l0 -544 -27
-30 c-17 -19 -44 -35 -68 -40 -23 -6 -393 -10 -852 -10 l-813 0 0 -75 0 -75
858 0 857 0 50 24 c60 28 116 87 139 147 15 40 16 101 14 619 -3 534 -4 578
-21 612 -26 52 -83 107 -136 132 -46 21 -50 21 -1101 23 -580 0 -1068 -2
-1085 -6z"/>
<path d="M3010 1080 l0 -80 109 0 c94 0 112 -3 135 -21 32 -25 35 -70 6 -99
-16 -16 -33 -20 -80 -20 l-60 0 0 -79 0 -79 61 -4 c49 -4 66 -9 80 -27 25 -30
24 -66 -1 -91 -18 -18 -33 -20 -135 -20 l-115 0 0 -81 0 -80 144 3 c142 3 145
4 188 33 90 63 125 199 75 297 l-23 45 23 43 c48 91 23 214 -58 284 -52 44
-103 56 -238 56 l-111 0 0 -80z"/>
<path d="M3680 980 l0 -80 485 0 485 0 0 80 0 80 -485 0 -485 0 0 -80z"/>
<path d="M3680 580 l0 -80 335 0 335 0 0 80 0 80 -335 0 -335 0 0 -80z"/>
</g>
</svg>
