<svg width="19" height="19" viewBox="0 0 19 19" fill="none" xmlns="http://www.w3.org/2000/svg">
<path d="M9.03834 1.41194C9.20914 1.0013 9.79086 1.0013 9.96166 1.41194L11.8456 5.94139C12.0616 6.46075 12.55 6.8156 13.1107 6.86055L18.0006 7.25257C18.4439 7.28811 18.6237 7.84136 18.2859 8.1307L14.5603 11.3221C14.1331 11.688 13.9466 12.2622 14.0771 12.8093L15.2153 17.581C15.3185 18.0136 14.8479 18.3556 14.4683 18.1237L10.2819 15.5667C9.80186 15.2735 9.19814 15.2735 8.71812 15.5667L4.53166 18.1238C4.15212 18.3556 3.68149 18.0137 3.78468 17.581L4.92292 12.8093C5.05343 12.2622 4.86687 11.688 4.43969 11.3221L0.714082 8.1307C0.376316 7.84137 0.556076 7.28811 0.999406 7.25257L5.88933 6.86055C6.45001 6.8156 6.93843 6.46074 7.15444 5.94139L9.03834 1.41194Z" stroke="#1B3687"/>
</svg>
