<svg width="39" height="39" viewBox="0 0 39 39" fill="none" xmlns="http://www.w3.org/2000/svg">
<path d="M19.6417 27.9453V17.9546" stroke="#1B3687" stroke-width="4" stroke-linecap="round"/>
<path d="M19.6418 11.2938C20.5618 11.2938 21.3076 12.0393 21.3076 12.9589C21.3076 13.8785 20.5618 14.624 19.6418 14.624C18.7218 14.624 17.976 13.8785 17.976 12.9589C17.976 12.0393 18.7218 11.2938 19.6418 11.2938Z" fill="#1B3687"/>
<path d="M2.98376 19.6195C2.98376 11.77 2.98376 7.8453 5.42328 5.40679C7.86277 2.96826 11.7891 2.96826 19.6418 2.96826C27.4943 2.96826 31.4208 2.96826 33.8602 5.40679C36.2997 7.8453 36.2997 11.77 36.2997 19.6195C36.2997 27.4689 36.2997 31.3938 33.8602 33.8322C31.4208 36.2708 27.4943 36.2708 19.6418 36.2708C11.7891 36.2708 7.86277 36.2708 5.42328 33.8322C2.98376 31.3938 2.98376 27.4689 2.98376 19.6195Z" stroke="#1B3687" stroke-width="4"/>
</svg>
